<?xml version="1.0" encoding="UTF-8"?>
<svg version="1.1" xmlns="http://www.w3.org/2000/svg" width="209" height="209">
<path d="M0 0 C3.33171848 1.39152707 4.87386765 2.82199901 6.84765625 5.82421875 C7.36505371 6.59805908 7.88245117 7.37189941 8.41552734 8.16918945 C9.23077881 9.41575317 9.23077881 9.41575317 10.0625 10.6875 C13.74853967 16.2228194 17.45636227 21.69470513 21.48608398 26.98632812 C32.37328169 41.3010124 39.67334089 56.54676853 38 75 C36.23946968 85.24041801 30.96472284 93.44819863 22.53125 99.4921875 C12.51792163 105.45691705 1.41757353 106.54155826 -9.96484375 104.45703125 C-17.55881684 102.39010023 -23.23321261 97.91338753 -29.375 93.125 C-30.51808585 92.24200194 -31.66131469 91.35918895 -32.8046875 90.4765625 C-34.68902393 89.01811494 -36.56894319 87.55466108 -38.4453125 86.0859375 C-45.1322675 80.92452356 -50.42281981 78.92613153 -59 80 C-63.93731887 82.19436394 -66.17687604 85.11045476 -68.30859375 89.91796875 C-69.7546656 94.27252409 -69.36491289 97.72280488 -68.125 102.0625 C-64.24781498 107.42213811 -58.17350873 110.57912812 -51.875 112.4375 C-45.37852021 113.38053739 -40.3896064 112.86682466 -34.67578125 109.3203125 C-31.66472566 106.94796567 -29.32340965 104.02979427 -27 101 C-24.469186 102.23508134 -22.10656506 103.53943242 -19.6875 105 C-16.21684107 107.01328267 -12.88867381 108.04767172 -9 109 C-11.14626754 118.30049269 -17.86081157 124.50606312 -25.57421875 129.5625 C-34.85388265 135.06156009 -44.76448406 136.54986605 -55.35546875 134.28125 C-66.56845556 131.02120225 -75.18321051 126.76250622 -82 117 C-88.0416431 105.24848033 -88.59801145 92.46036158 -85.046875 79.796875 C-82.29829712 72.45365948 -77.87075365 66.24183694 -70.640625 62.9140625 C-58.32936037 57.77829826 -48.44278868 57.95482647 -36 63 C-29.34449056 66.50156102 -24.1966078 70.62941552 -19 76 C-18.34644531 74.42412109 -18.34644531 74.42412109 -17.6796875 72.81640625 C-8.52851306 51.09368627 -8.52851306 51.09368627 0 47 C2.70129003 46.4323376 5.23288202 46.19083572 8 46 C8.33 46.66 8.66 47.32 9 48 C8.14786095 50.31937848 7.23612375 52.5509108 6.25 54.8125 C2.0306355 64.92218011 -0.28356881 75.05589592 -1 86 C8.0930505 83.25627632 8.0930505 83.25627632 15 77 C17.94218059 70.8224678 18.03754379 64.05076976 16.34765625 57.453125 C13.23799425 49.28525743 8.8408084 41.26121259 4 34 C0.40654069 35.5436107 -2.08188204 37.72618334 -4.9375 40.375 C-7.42853176 42.67737556 -9.83989307 44.88325032 -12.58203125 46.8828125 C-15.52409284 49.45889874 -16.95470322 52.0365071 -18.75 55.5 C-19.34296875 56.6240625 -19.9359375 57.748125 -20.546875 58.90625 C-21.68907595 61.33803266 -22.51209083 63.38069813 -23 66 C-26.01064601 64.58322541 -28.65370541 62.90968041 -31.375 61 C-34.81783368 58.66683998 -37.93213166 57.04304316 -42 56 C-40.79473449 47.23010755 -33.63164328 37.57826608 -26.75 32.26171875 C-23.52110239 29.96309804 -20.31737329 27.70590433 -16.8203125 25.83203125 C-7.07239144 20.57877418 -3.14879787 10.11135714 0 0 Z " fill="#4435D2" transform="translate(129,37)"/>
<path d="M0 0 C0.66 0 1.32 0 2 0 C6 4.35294118 6 4.35294118 6 8 C6.66 8 7.32 8 8 8 C8.33 7.01 8.66 6.02 9 5 C11.23430962 12.44769874 11.23430962 12.44769874 10.125 15.0625 C9.75375 15.701875 9.3825 16.34125 9 17 C8.95907063 19.33297433 8.95758277 21.66705225 9 24 C8.67 24.99 8.34 25.98 8 27 C8 27.99 8 28.98 8 30 C6.66666667 31.33333333 5.33333333 32.66666667 4 34 C1.51877437 37.92237124 1.51877437 37.92237124 1.3125 42.375 C1.539375 42.91125 1.76625 43.4475 2 44 C1.01 44.495 1.01 44.495 0 45 C0 44.01 0 43.02 0 42 C-0.66 42 -1.32 42 -2 42 C-2.33 42.66 -2.66 43.32 -3 44 C-4.11375 43.7215625 -4.11375 43.7215625 -5.25 43.4375 C-7.91316929 42.82367955 -7.91316929 42.82367955 -10.125 43.5625 C-10.74375 43.706875 -11.3625 43.85125 -12 44 C-12.99 43.34 -13.98 42.68 -15 42 C-15.22107787 39.2114711 -15.28107535 36.65346819 -15.1875 33.875 C-15.17396484 33.12089844 -15.16042969 32.36679688 -15.14648438 31.58984375 C-15.11109985 29.72625873 -15.05729167 27.86304022 -15 26 C-14.34 25.67 -13.68 25.34 -13 25 C-13.33 29.95 -13.66 34.9 -14 40 C-4.88655828 37.24534074 -4.88655828 37.24534074 2 31 C6.7422001 20.99243893 3.43620279 10.89442322 0 1 C0 0.67 0 0.34 0 0 Z " fill="#3C2FBB" transform="translate(142,83)"/>
<path d="M0 0 C0.33 0.66 0.66 1.32 1 2 C-0.66922513 6.31216493 -3.21377804 8.47585203 -7 11 C-6.67 12.32 -6.34 13.64 -6 15 C-6.99 15 -7.98 15 -9 15 C-9.66 14.34 -10.32 13.68 -11 13 C-11.99 12.67 -12.98 12.34 -14 12 C-15.46552629 16.30864728 -16.91739077 20.59361969 -18.0625 25 C-18.371875 25.99 -18.68125 26.98 -19 28 C-19.66 28.33 -20.32 28.66 -21 29 C-21 28.34 -21 27.68 -21 27 C-22.32 27.33 -23.64 27.66 -25 28 C-24.45342887 23.16831123 -23.02881848 19.68395985 -20.6875 15.4375 C-20.09324219 14.34308594 -19.49898438 13.24867187 -18.88671875 12.12109375 C-14.61274134 5.05089095 -9.00130258 -1.12516282 0 0 Z " fill="#4535CF" transform="translate(137,83)"/>
<path d="M0 0 C9.67579162 9.86067935 14.08128597 24.5694352 14.125 38.0625 C14.09325784 40.04185071 14.05505272 42.02116044 14 44 C13.34 44 12.68 44 12 44 C11.87625 43.195625 11.7525 42.39125 11.625 41.5625 C11.41875 40.716875 11.2125 39.87125 11 39 C10.34 38.67 9.68 38.34 9 38 C8.375 34.9375 8.375 34.9375 8 32 C8.66 32 9.32 32 10 32 C10 31.01 10 30.02 10 29 C9.01 28.67 8.02 28.34 7 28 C7 26.35 7 24.7 7 23 C7.99 22.67 8.98 22.34 10 22 C8.24263868 16.8525761 8.24263868 16.8525761 4.5 13.125 C1.95283869 11.92820667 1.95283869 11.92820667 -1 11 C-0.34 10.67 0.32 10.34 1 10 C0.34 8.02 -0.32 6.04 -1 4 C-3.31 3.67 -5.62 3.34 -8 3 C-8.33 2.01 -8.66 1.02 -9 0 C-5.54956421 -1.72521789 -3.65671647 -1.13897726 0 0 Z M10 27 C10.33 27.66 10.66 28.32 11 29 C11.33 28.34 11.66 27.68 12 27 C11.34 27 10.68 27 10 27 Z " fill="#493FAF" transform="translate(153,68)"/>
<path d="M0 0 C4.42134963 1.52849442 6.50758885 5.00643611 9.0625 8.6875 C9.49626953 9.28755859 9.93003906 9.88761719 10.37695312 10.50585938 C13.20597878 14.51472221 15.19385523 18.44004191 17 23 C17.65288627 24.34013497 18.31225595 25.67741528 19 27 C18.34 27.99 17.68 28.98 17 30 C16.34 30 15.68 30 15 30 C15.33 28.68 15.66 27.36 16 26 C15.34 26 14.68 26 14 26 C13.67 25.01 13.34 24.02 13 23 C13.33 22.34 13.66 21.68 14 21 C12.35 21 10.7 21 9 21 C7.92474806 18.34771188 6.90543849 15.71631546 6 13 C5.67 12.34 5.34 11.68 5 11 C3.35 11 1.7 11 0 11 C-0.12375 12.134375 -0.2475 13.26875 -0.375 14.4375 C-0.58125 15.613125 -0.7875 16.78875 -1 18 C-1.66 18.33 -2.32 18.66 -3 19 C-3.39325819 12.02330843 -2.63096039 6.48343811 0 0 Z " fill="#4036AF" transform="translate(129,37)"/>
<path d="M0 0 C-0.33 0.99 -0.66 1.98 -1 3 C-0.34 3 0.32 3 1 3 C1 3.66 1 4.32 1 5 C1.66 5 2.32 5 3 5 C3 5.66 3 6.32 3 7 C3.99 7.33 4.98 7.66 6 8 C7.6875 11.0625 7.6875 11.0625 9 14 C8.01 14.99 7.02 15.98 6 17 C5.75765625 16.48050781 5.5153125 15.96101563 5.265625 15.42578125 C3.22863922 11.18728392 1.12171172 7.56767054 -2 4 C-4.49361571 5.20381448 -6.68143083 6.45428722 -9 8 C-9 7.34 -9 6.68 -9 6 C-9.66 5.505 -10.32 5.01 -11 4.5 C-11.66 4.005 -12.32 3.51 -13 3 C-13 1 -13 1 -11.5625 -0.75 C-7.55547632 -2.7046457 -4.13067246 -1.22684503 0 0 Z " fill="#372BA8" transform="translate(135,65)"/>
<path d="M0 0 C0.33 0 0.66 0 1 0 C1.7890625 2.671875 1.7890625 2.671875 2 6 C0.0859375 8.703125 0.0859375 8.703125 -2.625 11.25 C-3.50414063 12.10078125 -4.38328125 12.9515625 -5.2890625 13.828125 C-7.84340407 15.87454275 -9.91004996 16.99604511 -13 18 C-13 19.65 -13 21.3 -13 23 C-15.64 23 -18.28 23 -21 23 C-21 22.01 -21 21.02 -21 20 C-18.76953125 18.3515625 -18.76953125 18.3515625 -15.8125 16.625 C-9.07520218 12.49290569 -4.97973435 8.36087431 -1.015625 1.57421875 C-0.51289062 0.79498047 -0.51289062 0.79498047 0 0 Z " fill="#4335C6" transform="translate(125,48)"/>
<path d="M0 0 C1.65 0 3.3 0 5 0 C5 0.99 5 1.98 5 3 C5.66 3 6.32 3 7 3 C7 3.66 7 4.32 7 5 C8.32 4.34 9.64 3.68 11 3 C12.36741555 5.25221384 13.04066478 6.52557758 12.8125 9.1875 C12.544375 9.785625 12.27625 10.38375 12 11 C9 12 9 12 6.375 10.75 C4 9 4 9 3 6 C2.34 6 1.68 6 1 6 C0.67 4.02 0.34 2.04 0 0 Z " fill="#4A38ED" transform="translate(47,148)"/>
<path d="M0 0 C-0.875 4.75 -0.875 4.75 -2 7 C-2.99 7.66 -3.98 8.32 -5 9 C-4.67 10.32 -4.34 11.64 -4 13 C-4.99 13 -5.98 13 -7 13 C-7.66 12.34 -8.32 11.68 -9 11 C-9.66 11 -10.32 11 -11 11 C-11.33 9.68 -11.66 8.36 -12 7 C-11.01 6.67 -10.02 6.34 -9 6 C-8.7834375 5.0409375 -8.7834375 5.0409375 -8.5625 4.0625 C-8 2 -8 2 -6.1875 0.75 C-4 0 -4 0 0 0 Z " fill="#392DB7" transform="translate(135,85)"/>
<path d="M0 0 C0.66 0 1.32 0 2 0 C6 4.35294118 6 4.35294118 6 8 C6.66 8 7.32 8 8 8 C8.33 7.01 8.66 6.02 9 5 C11.23430962 12.44769874 11.23430962 12.44769874 10.125 15.0625 C9.75375 15.701875 9.3825 16.34125 9 17 C9 18.19625 9 19.3925 9 20.625 C9 21.73875 9 22.8525 9 24 C8.34 24.66 7.68 25.32 7 26 C6.94392578 24.96552734 6.94392578 24.96552734 6.88671875 23.91015625 C6.45106471 17.68286616 5.76113936 11.68081305 3 6 C2.34 5.67 1.68 5.34 1 5 C0.375 2.4375 0.375 2.4375 0 0 Z " fill="#352BA0" transform="translate(142,83)"/>
<path d="M0 0 C2.5631776 2.5631776 4.62617972 5.01944114 6.75 7.9375 C7.38421875 8.79214844 8.0184375 9.64679687 8.671875 10.52734375 C10 13 10 13 9.703125 15.31640625 C9.35507813 16.14978516 9.35507813 16.14978516 9 17 C8.01 15.02 7.02 13.04 6 11 C5.34 11 4.68 11 4 11 C4 10.34 4 9.68 4 9 C2.35 9 0.7 9 -1 9 C-1.12375 10.134375 -1.2475 11.26875 -1.375 12.4375 C-1.58125 13.613125 -1.7875 14.78875 -2 16 C-2.66 16.33 -3.32 16.66 -4 17 C-4 14.36 -4 11.72 -4 9 C-3.34 9 -2.68 9 -2 9 C-1.34 6.03 -0.68 3.06 0 0 Z " fill="#3428A7" transform="translate(130,39)"/>
<path d="M0 0 C1.98 0.495 1.98 0.495 4 1 C4 1.66 4 2.32 4 3 C4.99 2.67 5.98 2.34 7 2 C7.33 2.99 7.66 3.98 8 5 C7.67 5.66 7.34 6.32 7 7 C9.64 7.33 12.28 7.66 15 8 C15 8.99 15 9.98 15 11 C7.23214286 11.66964286 7.23214286 11.66964286 3.5 8.6875 C1 6 1 6 1 3 C0.34 2.67 -0.32 2.34 -1 2 C-0.67 1.34 -0.34 0.68 0 0 Z " fill="#4A3BD0" transform="translate(96,122)"/>
<path d="M0 0 C3 1 3 1 3.9140625 2.64453125 C6.31933825 9.97930071 7 17.29927977 7 25 C4.51409299 28.01860137 2.78043163 29.22167584 -1 30 C-0.71125 29.48953125 -0.4225 28.9790625 -0.125 28.453125 C3.58194811 21.19368495 4.28085747 14.18198336 2.31640625 6.234375 C1.61962956 4.1140402 0.87137006 2.05394371 0 0 Z " fill="#453AAF" transform="translate(143,88)"/>
<path d="M0 0 C0.33 0.66 0.66 1.32 1 2 C0.01 3.32 -0.98 4.64 -2 6 C-2 4.68 -2 3.36 -2 2 C-3.31722179 2.42307123 -4.62872664 2.86397486 -5.9375 3.3125 C-6.66839844 3.55613281 -7.39929688 3.79976563 -8.15234375 4.05078125 C-10.35932024 4.91240441 -10.35932024 4.91240441 -11 8 C-11.99 8.495 -11.99 8.495 -13 9 C-14.05352843 11.30965848 -15.05719096 13.6429774 -16 16 C-16.33 15.01 -16.66 14.02 -17 13 C-17.66 12.67 -18.32 12.34 -19 12 C-14.53144132 5.02634024 -9.04331658 -1.13041457 0 0 Z " fill="#4639C1" transform="translate(137,83)"/>
<path d="M0 0 C0 4.06892857 -1.64505053 5.33622345 -4.265625 8.28125 C-6.64672681 10.64090044 -9.12396741 12.28807584 -12 14 C-13.32 13.34 -14.64 12.68 -16 12 C-15 11 -14 10 -13 9 C-12.21625 8.0925 -11.4325 7.185 -10.625 6.25 C-8 4 -8 4 -5.1875 4.1875 C-4.465625 4.455625 -3.74375 4.72375 -3 5 C-3 4.01 -3 3.02 -3 2 C-2.01 1.34 -1.02 0.68 0 0 Z " fill="#483CBA" transform="translate(161,124)"/>
<path d="M0 0 C0 0.66 0 1.32 0 2 C-0.66 2 -1.32 2 -2 2 C-1.67 2.928125 -1.34 3.85625 -1 4.8125 C0 8 0 8 0 11 C-2.64 11 -5.28 11 -8 11 C-7.43518386 7.04628701 -6.28003407 4.28324906 -4 1 C-2 0 -2 0 0 0 Z " fill="#4A3DD0" transform="translate(95,82)"/>
<path d="M0 0 C0.66 0.99 1.32 1.98 2 3 C0.76210371 6.71368887 -0.85224877 7.77354181 -4 10 C-4.66 10 -5.32 10 -6 10 C-6.33 7.03 -6.66 4.06 -7 1 C-3.535 0.505 -3.535 0.505 0 0 Z " fill="#3B2EBA" transform="translate(123,72)"/>
<path d="M0 0 C2.125 0.1875 2.125 0.1875 4 1 C4.33 1.66 4.66 2.32 5 3 C4.2575 3.2475 3.515 3.495 2.75 3.75 C-0.07219337 4.83043942 -0.07219337 4.83043942 -1.9375 7 C-4.43612777 9.42291177 -6.67820615 10.09405622 -10 11 C-10.33 10.34 -10.66 9.68 -11 9 C-10.45730469 8.60167969 -9.91460937 8.20335937 -9.35546875 7.79296875 C-8.64003906 7.26316406 -7.92460938 6.73335937 -7.1875 6.1875 C-6.47980469 5.66542969 -5.77210937 5.14335937 -5.04296875 4.60546875 C-2.98903235 3.07036433 -2.98903235 3.07036433 -1.37109375 1.2890625 C-0.91863281 0.86367187 -0.46617188 0.43828125 0 0 Z " fill="#4A39EA" transform="translate(102,141)"/>
<path d="M0 0 C0.33 0 0.66 0 1 0 C0.67 4.95 0.34 9.9 0 15 C1.753125 14.34 3.50625 13.68 5.3125 13 C8.46034008 11.81493079 10.62534314 11 14 11 C11.30004151 14.33524284 7.96744005 15.56351308 4 17 C2.33408713 17.05012059 0.66558277 17.06009835 -1 17 C-1.02684679 14.35409986 -1.04676357 11.70846904 -1.0625 9.0625 C-1.07087891 8.30775391 -1.07925781 7.55300781 -1.08789062 6.77539062 C-1.09652441 4.85005687 -1.05224333 2.92464419 -1 1 C-0.67 0.67 -0.34 0.34 0 0 Z " fill="#5347C6" transform="translate(128,108)"/>
<path d="M0 0 C0.33 0.66 0.66 1.32 1 2 C1.66 2 2.32 2 3 2 C3 2.66 3 3.32 3 4 C3.66 4 4.32 4 5 4 C5.33 4.99 5.66 5.98 6 7 C4.35 8.65 2.7 10.3 1 12 C-1.32488647 8.36736489 -1.23961213 5.23314767 -1 1 C-0.67 0.67 -0.34 0.34 0 0 Z " fill="#4235C3" transform="translate(111,76)"/>
<path d="M0 0 C6.33107423 2.48720773 8.68591228 8.08157842 11.36328125 13.9140625 C12 16 12 16 11 19 C10.51789063 18.09636719 10.03578125 17.19273438 9.5390625 16.26171875 C8.90112135 15.07026983 8.2630961 13.87886594 7.625 12.6875 C7.30789062 12.09259766 6.99078125 11.49769531 6.6640625 10.88476562 C5.20613651 8.16634112 3.71288297 5.56932446 2 3 C-0.49361571 4.20381448 -2.68143083 5.45428722 -5 7 C-3.70700306 4.11562221 -2.34058637 2.12780579 0 0 Z " fill="#4D41B5" transform="translate(131,68)"/>
<path d="M0 0 C1.39035371 4.17106112 -0.09769194 7.18206859 -1.4375 11.1875 C-1.68048828 11.93708984 -1.92347656 12.68667969 -2.17382812 13.45898438 C-2.77465056 15.30857501 -3.38629678 17.15464327 -4 19 C-4.33 19 -4.66 19 -5 19 C-6.125 12.25 -6.125 12.25 -5 10 C-4.34 10 -3.68 10 -3 10 C-3.66 8.02 -4.32 6.04 -5 4 C-4.0409375 3.8453125 -4.0409375 3.8453125 -3.0625 3.6875 C-2.381875 3.460625 -1.70125 3.23375 -1 3 C-0.67 2.01 -0.34 1.02 0 0 Z " fill="#473BBE" transform="translate(134,89)"/>
<path d="M0 0 C2.14336161 3.4766338 2.21277626 6.21229195 2.125 10.25 C2.10695312 11.32765625 2.08890625 12.4053125 2.0703125 13.515625 C2.04710937 14.33546875 2.02390625 15.1553125 2 16 C1.67 16 1.34 16 1 16 C0.87625 15.195625 0.7525 14.39125 0.625 13.5625 C0.315625 12.2940625 0.315625 12.2940625 0 11 C-0.66 10.67 -1.32 10.34 -2 10 C-2.625 6.9375 -2.625 6.9375 -3 4 C-2.34 4 -1.68 4 -1 4 C-0.67 2.68 -0.34 1.36 0 0 Z " fill="#392FAB" transform="translate(164,96)"/>
<path d="M0 0 C1.33333333 1.33333333 2.66666667 2.66666667 4 4 C1.4791665 5.26041675 0.64903564 4.66225891 -2 4 C-2.99 4.495 -2.99 4.495 -4 5 C-6.5 5.6875 -6.5 5.6875 -9 6 C-9.66 5.34 -10.32 4.68 -11 4 C-4.5 0 -4.5 0 0 0 Z " fill="#4B39EB" transform="translate(68,99)"/>
<path d="M0 0 C4.95 0.99 4.95 0.99 10 2 C9.67 3.32 9.34 4.64 9 6 C5.32579134 5.69381595 4.21864487 5.24228216 1.6875 2.4375 C1.130625 1.633125 0.57375 0.82875 0 0 Z M4 6 C4.33 6.99 4.66 7.98 5 9 C4.01 9.495 4.01 9.495 3 10 C3.33 8.68 3.66 7.36 4 6 Z " fill="#4A38F0" transform="translate(77,97)"/>
<path d="M0 0 C0.33 0 0.66 0 1 0 C1.9375 2.5625 1.9375 2.5625 2 6 C-0.04062626 8.67631874 -2.43214591 10.83557436 -5 13 C-5.6796875 11.296875 -5.6796875 11.296875 -6 9 C-4.8203125 6.640625 -4.8203125 6.640625 -3.125 4.25 C-2.57070312 3.45078125 -2.01640625 2.6515625 -1.4453125 1.828125 C-0.96835938 1.22484375 -0.49140625 0.6215625 0 0 Z " fill="#473BB6" transform="translate(125,48)"/>
<path d="M0 0 C2 2 2 2 2 5 C2.7425 4.9175 3.485 4.835 4.25 4.75 C7.78157027 5.07105184 8.76630364 6.35265617 11 9 C5.41399909 8.58104993 1.37498445 6.3517184 -3 3 C-3.33 2.34 -3.66 1.68 -4 1 C-2.125 0.375 -2.125 0.375 0 0 Z " fill="#4E41D0" transform="translate(109,132)"/>
<path d="M0 0 C0.9075 0.185625 1.815 0.37125 2.75 0.5625 C5.68314324 0.95734621 7.2644657 0.94691572 10 0 C9.67 0.99 9.34 1.98 9 3 C8.01 3 7.02 3 6 3 C6 3.66 6 4.32 6 5 C3.69 5.33 1.38 5.66 -1 6 C-0.67 4.02 -0.34 2.04 0 0 Z " fill="#4B38F0" transform="translate(97,160)"/>
<path d="M0 0 C1.98 0.495 1.98 0.495 4 1 C4 1.66 4 2.32 4 3 C4.99 2.67 5.98 2.34 7 2 C7.33 2.99 7.66 3.98 8 5 C7.67 5.66 7.34 6.32 7 7 C4.83125748 6.49396008 3.00032373 6.00016187 1 5 C1 4.34 1 3.68 1 3 C0.34 2.67 -0.32 2.34 -1 2 C-0.67 1.34 -0.34 0.68 0 0 Z " fill="#4C39F1" transform="translate(96,122)"/>
<path d="M0 0 C2 0 2 0 4 1.9375 C6.5373929 5.82288288 7.25035287 9.4725259 8 14 C7.01 14.495 7.01 14.495 6 15 C5.80664062 14.36191406 5.61328125 13.72382812 5.4140625 13.06640625 C5.15367187 12.24011719 4.89328125 11.41382812 4.625 10.5625 C4.24214844 9.32693359 4.24214844 9.32693359 3.8515625 8.06640625 C3.19117773 5.82201984 3.19117773 5.82201984 1 5 C0.375 2.4375 0.375 2.4375 0 0 Z " fill="#392CAD" transform="translate(142,83)"/>
<path d="M0 0 C0.66 0 1.32 0 2 0 C1.05066101 3.35433109 0.10251165 6.69246505 -1 10 C-1.66 10 -2.32 10 -3 10 C-3.66 7.36 -4.32 4.72 -5 2 C-3.68 1.67 -2.36 1.34 -1 1 C-0.67 0.67 -0.34 0.34 0 0 Z " fill="#4A3AED" transform="translate(48,136)"/>
<path d="M0 0 C1.32 0 2.64 0 4 0 C4.33 2.31 4.66 4.62 5 7 C3.35 7.33 1.7 7.66 0 8 C0.185625 7.236875 0.37125 6.47375 0.5625 5.6875 C1.22819173 2.91032625 1.22819173 2.91032625 0 0 Z " fill="#4A38E9" transform="translate(56,136)"/>
<path d="M0 0 C2.64 0.99 5.28 1.98 8 3 C7.34 3.66 6.68 4.32 6 5 C4.66400079 4.67751743 3.33106622 4.34227417 2 4 C-0.68149993 4.38567131 -0.68149993 4.38567131 -3 5 C-2.67 4.01 -2.34 3.02 -2 2 C-1.34 2 -0.68 2 0 2 C0 1.34 0 0.68 0 0 Z " fill="#4B38EE" transform="translate(67,147)"/>
<path d="M0 0 C1.32 0.33 2.64 0.66 4 1 C3.39301257 5.12751449 1.96189209 8.3321148 0 12 C-0.66 11.67 -1.32 11.34 -2 11 C-1.67 10.484375 -1.34 9.96875 -1 9.4375 C0.32010877 6.21973488 0.13242105 3.4429472 0 0 Z " fill="#352AA5" transform="translate(161,111)"/>
<path d="M0 0 C0.33 1.32 0.66 2.64 1 4 C-1.64 3.67 -4.28 3.34 -7 3 C-7.33 2.01 -7.66 1.02 -8 0 C-5.13822943 -1.43088528 -3.06624227 -0.59991697 0 0 Z " fill="#362CA4" transform="translate(152,68)"/>
<path d="M0 0 C0.33 0.99 0.66 1.98 1 3 C-2.64116773 6.33773709 -6.28607242 6.97864902 -11 8 C-8.80861021 5.64270057 -6.56068027 3.97942902 -3.8125 2.3125 C-3.09707031 1.87550781 -2.38164063 1.43851563 -1.64453125 0.98828125 C-1.10183594 0.66214844 -0.55914062 0.33601563 0 0 Z " fill="#5043C4" transform="translate(118,59)"/>
<path d="M0 0 C0.33 0.99 0.66 1.98 1 3 C1.66 3.66 2.32 4.32 3 5 C3 5.66 3 6.32 3 7 C0.69 7 -1.62 7 -4 7 C-3.43628586 3.73045798 -2.50037734 2.17424117 0 0 Z " fill="#4B39EF" transform="translate(53,105)"/>
<path d="M0 0 C0.33 0.66 0.66 1.32 1 2 C0.01 3.32 -0.98 4.64 -2 6 C-2 4.68 -2 3.36 -2 2 C-4.97 2.66 -7.94 3.32 -11 4 C-7.23121442 0.23121442 -5.1234648 -0.13847202 0 0 Z " fill="#4E44B9" transform="translate(137,83)"/>
<path d="M0 0 C1.4540625 0.0309375 1.4540625 0.0309375 2.9375 0.0625 C2.6075 1.7125 2.2775 3.3625 1.9375 5.0625 C0.6175 4.7325 -0.7025 4.4025 -2.0625 4.0625 C-2.0625 3.4025 -2.0625 2.7425 -2.0625 2.0625 C-2.7225 1.7325 -3.3825 1.4025 -4.0625 1.0625 C-3.0625 0.0625 -3.0625 0.0625 0 0 Z " fill="#4A39E5" transform="translate(116.0625,146.9375)"/>
<path d="M0 0 C0.66 0.33 1.32 0.66 2 1 C-0.69425098 4.32819238 -4.00828574 5.64566838 -8 7 C-8.99 6.34 -9.98 5.68 -11 5 C-9.93458984 4.58427734 -9.93458984 4.58427734 -8.84765625 4.16015625 C-7.46900391 3.61681641 -7.46900391 3.61681641 -6.0625 3.0625 C-5.14597656 2.70285156 -4.22945312 2.34320313 -3.28515625 1.97265625 C-1.07581467 1.2003782 -1.07581467 1.2003782 0 0 Z " fill="#4C3FBA" transform="translate(140,118)"/>
<path d="M0 0 C0.99 0 1.98 0 3 0 C2.67 2.31 2.34 4.62 2 7 C1.01 6.67 0.02 6.34 -1 6 C-1.042721 4.33388095 -1.04063832 2.66617115 -1 1 C-0.67 0.67 -0.34 0.34 0 0 Z " fill="#372DA5" transform="translate(161,90)"/>
<path d="M0 0 C0 0.99 0 1.98 0 3 C-0.99 2.67 -1.98 2.34 -3 2 C-4.0209375 2.2784375 -4.0209375 2.2784375 -5.0625 2.5625 C-6.0215625 2.7790625 -6.0215625 2.7790625 -7 3 C-7.66 2.34 -8.32 1.68 -9 1 C-3.375 -1.125 -3.375 -1.125 0 0 Z " fill="#4031C7" transform="translate(137,124)"/>
<path d="M0 0 C0.66 0 1.32 0 2 0 C0.76210371 3.71368887 -0.85224877 4.77354181 -4 7 C-4.66 7 -5.32 7 -6 7 C-5.67 5.68 -5.34 4.36 -5 3 C-3.35 2.67 -1.7 2.34 0 2 C0 1.34 0 0.68 0 0 Z " fill="#493CBA" transform="translate(123,75)"/>
<path d="M0 0 C0.99 0.33 1.98 0.66 3 1 C3 1.66 3 2.32 3 3 C2.34 3 1.68 3 1 3 C0.67 3.66 0.34 4.32 0 5 C-2.0625 5.625 -2.0625 5.625 -4 6 C-2.68 4.02 -1.36 2.04 0 0 Z " fill="#4A38E9" transform="translate(60,118)"/>
<path d="M0 0 C0.99 0 1.98 0 3 0 C3 0.66 3 1.32 3 2 C3.99 2.33 4.98 2.66 6 3 C6 3.66 6 4.32 6 5 C3.69 4.34 1.38 3.68 -1 3 C-0.67 2.01 -0.34 1.02 0 0 Z " fill="#4B3AF3" transform="translate(82,112)"/>
<path d="M0 0 C1.32 0.66 2.64 1.32 4 2 C1.23776722 4.76223278 -1.20706617 4.57856291 -5 5 C-3.35 3.35 -1.7 1.7 0 0 Z " fill="#3A2EB0" transform="translate(153,128)"/>
<path d="M0 0 C2.475 0.99 2.475 0.99 5 2 C3 4 3 4 0.375 4.125 C-0.40875 4.08375 -1.1925 4.0425 -2 4 C-1.34 2.68 -0.68 1.36 0 0 Z " fill="#4C38F6" transform="translate(107,129)"/>
<path d="M0 0 C0.6875 1.6875 0.6875 1.6875 1 4 C-0.3992219 6.79844381 -1.78791383 8.78791383 -4 11 C-3.48964169 6.6109185 -2.47785723 3.66291938 0 0 Z " fill="#4F43C2" transform="translate(48,109)"/>
<path d="M0 0 C2 3 2 3 2 7 C0.68 7.33 -0.64 7.66 -2 8 C-1.125 2.25 -1.125 2.25 0 0 Z " fill="#4B3EC7" transform="translate(114,103)"/>
<path d="M0 0 C2.625 0.9375 2.625 0.9375 5 2 C4.67 2.66 4.34 3.32 4 4 C1.03 3.505 1.03 3.505 -2 3 C-2 2.34 -2 1.68 -2 1 C-1.34 0.67 -0.68 0.34 0 0 Z " fill="#4A38EC" transform="translate(91,89)"/>
<path d="M0 0 C4.875 2.625 4.875 2.625 6 6 C3.69 5.34 1.38 4.68 -1 4 C-0.67 2.68 -0.34 1.36 0 0 Z " fill="#4937E6" transform="translate(102,108)"/>
</svg>
